<svg xml:space="preserve" viewBox="0 0 100 100" y="0px" x="0px" xmlns:xlink="http://www.w3.org/1999/xlink" xmlns="http://www.w3.org/2000/svg" id="圖層_1" version="1.1" style="height: 100%; width: 100%; transform: translate(100, 100);" width="295px" height="295px"><g class="ldl-scale" style="transform-origin: 50% 50%; transform: rotate(0deg) scale(0.8, 0.8);"><g class="ldl-ani"><g class="ldl-layer"><g class="ldl-ani" style="transform: scale(0.91); transform-origin: 50px 50px; animation: 2s linear -1.33333s infinite normal forwards running breath-701048b7-c072-4f68-957d-57de472c4e83;"><path d="M84.1,38C84.1,63.2,50,80.9,50,80.9S15.9,63.2,15.9,38S50,13.1,50,37.1C50,13.5,84.1,12.9,84.1,38z" stroke-miterlimit="10" stroke-linejoin="round" stroke-linecap="round" stroke-width="3.5" stroke="#333435" fill="#C33837" style="fill: rgb(195, 56, 55); stroke: rgb(51, 52, 53);"></path></g></g><g class="ldl-layer"><g class="ldl-ani" style="transform: scale(0.91); transform-origin: 50px 50px; animation: 2s linear -1.66667s infinite normal forwards running breath-701048b7-c072-4f68-957d-57de472c4e83;"><path d="M87.8,54.8c0,11.9-16.2,20.3-16.2,20.3s-16.2-8.4-16.2-20.3S71.7,43,71.7,54.3C71.7,43.1,87.8,42.9,87.8,54.8z" stroke-miterlimit="10" stroke-linejoin="round" stroke-linecap="round" stroke-width="3.5" stroke="#333435" fill="#F47E5F" style="fill: rgb(244, 126, 95); stroke: rgb(51, 52, 53);"></path></g></g><g class="ldl-layer"><g class="ldl-ani" style="transform: scale(0.91); transform-origin: 50px 50px; animation: 2s linear -2s infinite normal forwards running breath-701048b7-c072-4f68-957d-57de472c4e83;"><path d="M36.9,65.9c0,7.3-9.9,12.4-9.9,12.4s-9.9-5.1-9.9-12.4s9.9-7.2,9.9-0.3C27,58.8,36.9,58.6,36.9,65.9z" stroke-miterlimit="10" stroke-linejoin="round" stroke-linecap="round" stroke-width="3.5" stroke="#333435" fill="#E15C64" style="fill: rgb(225, 92, 100); stroke: rgb(51, 52, 53);"></path></g></g><metadata xmlns:d="https://loading.io/stock/">
<d:name>love</d:name>
<d:tags>heart,like,love,favor,prefer</d:tags>
<d:license>by</d:license>
<d:slug>bd1cmh</d:slug>
</metadata></g></g></svg>